<svg xmlns="http://www.w3.org/2000/svg" width="720" height="240" font-family="sans-serif">
<rect width="720" height="240" fill="white"/>
<text x="40" y="24" font-size="14" font-weight="bold">forterp ms_min over git history (lower is better)</text>
<circle cx="40.0" cy="147.4" r="3" fill="#2b8cbe"/>
<circle cx="80.0" cy="149.1" r="3" fill="#2b8cbe"/>
<circle cx="120.0" cy="150.1" r="3" fill="#2b8cbe"/>
<circle cx="160.0" cy="164.8" r="3" fill="#2b8cbe"/>
<circle cx="200.0" cy="162.5" r="3" fill="#2b8cbe"/>
<circle cx="240.0" cy="162.3" r="3" fill="#2b8cbe"/>
<circle cx="280.0" cy="161.6" r="3" fill="#2b8cbe"/>
<circle cx="320.0" cy="160.2" r="3" fill="#2b8cbe"/>
<circle cx="360.0" cy="160.5" r="3" fill="#2b8cbe"/>
<circle cx="400.0" cy="161.8" r="3" fill="#2b8cbe"/>
<circle cx="440.0" cy="158.8" r="3" fill="#2b8cbe"/>
<circle cx="480.0" cy="158.7" r="3" fill="#2b8cbe"/>
<circle cx="520.0" cy="159.0" r="3" fill="#2b8cbe"/>
<circle cx="560.0" cy="161.6" r="3" fill="#2b8cbe"/>
<circle cx="600.0" cy="159.9" r="3" fill="#2b8cbe"/>
<circle cx="640.0" cy="159.3" r="3" fill="#2b8cbe"/>
<circle cx="680.0" cy="158.9" r="3" fill="#2b8cbe"/>
<polyline fill="none" stroke="#2b8cbe" stroke-width="2" points="40.0,147.4 80.0,149.1 120.0,150.1 160.0,164.8 200.0,162.5 240.0,162.3 280.0,161.6 320.0,160.2 360.0,160.5 400.0,161.8 440.0,158.8 480.0,158.7 520.0,159.0 560.0,161.6 600.0,159.9 640.0,159.3 680.0,158.9"/>
<text x="44" y="141.4" font-size="11" fill="#2b8cbe">loop</text>
<circle cx="40.0" cy="47.5" r="3" fill="#e6550d"/>
<circle cx="80.0" cy="40.8" r="3" fill="#e6550d"/>
<circle cx="120.0" cy="40.0" r="3" fill="#e6550d"/>
<circle cx="160.0" cy="105.5" r="3" fill="#e6550d"/>
<circle cx="200.0" cy="96.4" r="3" fill="#e6550d"/>
<circle cx="240.0" cy="91.1" r="3" fill="#e6550d"/>
<circle cx="280.0" cy="93.7" r="3" fill="#e6550d"/>
<circle cx="320.0" cy="87.7" r="3" fill="#e6550d"/>
<circle cx="360.0" cy="93.1" r="3" fill="#e6550d"/>
<circle cx="400.0" cy="94.0" r="3" fill="#e6550d"/>
<circle cx="440.0" cy="86.0" r="3" fill="#e6550d"/>
<circle cx="480.0" cy="88.8" r="3" fill="#e6550d"/>
<circle cx="520.0" cy="88.3" r="3" fill="#e6550d"/>
<circle cx="560.0" cy="96.1" r="3" fill="#e6550d"/>
<circle cx="600.0" cy="86.5" r="3" fill="#e6550d"/>
<circle cx="640.0" cy="86.9" r="3" fill="#e6550d"/>
<circle cx="680.0" cy="85.9" r="3" fill="#e6550d"/>
<polyline fill="none" stroke="#e6550d" stroke-width="2" points="40.0,47.5 80.0,40.8 120.0,40.0 160.0,105.5 200.0,96.4 240.0,91.1 280.0,93.7 320.0,87.7 360.0,93.1 400.0,94.0 440.0,86.0 480.0,88.8 520.0,88.3 560.0,96.1 600.0,86.5 640.0,86.9 680.0,85.9"/>
<text x="44" y="41.5" font-size="11" fill="#e6550d">fft</text>
</svg>
