<svg xmlns="http://www.w3.org/2000/svg" width="720" height="240" font-family="sans-serif">
<rect width="720" height="240" fill="white"/>
<text x="40" y="24" font-size="14" font-weight="bold">forterp ms_min over git history (lower is better)</text>
<circle cx="40.0" cy="147.4" r="3" fill="#2b8cbe"/>
<circle cx="69.1" cy="149.1" r="3" fill="#2b8cbe"/>
<circle cx="98.2" cy="150.1" r="3" fill="#2b8cbe"/>
<circle cx="127.3" cy="164.8" r="3" fill="#2b8cbe"/>
<circle cx="156.4" cy="162.5" r="3" fill="#2b8cbe"/>
<circle cx="185.5" cy="162.3" r="3" fill="#2b8cbe"/>
<circle cx="214.5" cy="161.6" r="3" fill="#2b8cbe"/>
<circle cx="243.6" cy="160.2" r="3" fill="#2b8cbe"/>
<circle cx="272.7" cy="160.5" r="3" fill="#2b8cbe"/>
<circle cx="301.8" cy="161.8" r="3" fill="#2b8cbe"/>
<circle cx="330.9" cy="158.8" r="3" fill="#2b8cbe"/>
<circle cx="360.0" cy="158.7" r="3" fill="#2b8cbe"/>
<circle cx="389.1" cy="159.0" r="3" fill="#2b8cbe"/>
<circle cx="418.2" cy="161.6" r="3" fill="#2b8cbe"/>
<circle cx="447.3" cy="159.9" r="3" fill="#2b8cbe"/>
<circle cx="476.4" cy="159.3" r="3" fill="#2b8cbe"/>
<circle cx="505.5" cy="158.9" r="3" fill="#2b8cbe"/>
<circle cx="534.5" cy="158.9" r="3" fill="#2b8cbe"/>
<circle cx="563.6" cy="159.6" r="3" fill="#2b8cbe"/>
<circle cx="592.7" cy="160.1" r="3" fill="#2b8cbe"/>
<circle cx="621.8" cy="161.8" r="3" fill="#2b8cbe"/>
<circle cx="650.9" cy="160.4" r="3" fill="#2b8cbe"/>
<circle cx="680.0" cy="158.3" r="3" fill="#2b8cbe"/>
<polyline fill="none" stroke="#2b8cbe" stroke-width="2" points="40.0,147.4 69.1,149.1 98.2,150.1 127.3,164.8 156.4,162.5 185.5,162.3 214.5,161.6 243.6,160.2 272.7,160.5 301.8,161.8 330.9,158.8 360.0,158.7 389.1,159.0 418.2,161.6 447.3,159.9 476.4,159.3 505.5,158.9 534.5,158.9 563.6,159.6 592.7,160.1 621.8,161.8 650.9,160.4 680.0,158.3"/>
<text x="44" y="141.4" font-size="11" fill="#2b8cbe">loop</text>
<circle cx="40.0" cy="47.5" r="3" fill="#e6550d"/>
<circle cx="69.1" cy="40.8" r="3" fill="#e6550d"/>
<circle cx="98.2" cy="40.0" r="3" fill="#e6550d"/>
<circle cx="127.3" cy="105.5" r="3" fill="#e6550d"/>
<circle cx="156.4" cy="96.4" r="3" fill="#e6550d"/>
<circle cx="185.5" cy="91.1" r="3" fill="#e6550d"/>
<circle cx="214.5" cy="93.7" r="3" fill="#e6550d"/>
<circle cx="243.6" cy="87.7" r="3" fill="#e6550d"/>
<circle cx="272.7" cy="93.1" r="3" fill="#e6550d"/>
<circle cx="301.8" cy="94.0" r="3" fill="#e6550d"/>
<circle cx="330.9" cy="86.0" r="3" fill="#e6550d"/>
<circle cx="360.0" cy="88.8" r="3" fill="#e6550d"/>
<circle cx="389.1" cy="88.3" r="3" fill="#e6550d"/>
<circle cx="418.2" cy="96.1" r="3" fill="#e6550d"/>
<circle cx="447.3" cy="86.5" r="3" fill="#e6550d"/>
<circle cx="476.4" cy="86.9" r="3" fill="#e6550d"/>
<circle cx="505.5" cy="85.9" r="3" fill="#e6550d"/>
<circle cx="534.5" cy="87.5" r="3" fill="#e6550d"/>
<circle cx="563.6" cy="86.1" r="3" fill="#e6550d"/>
<circle cx="592.7" cy="88.7" r="3" fill="#e6550d"/>
<circle cx="621.8" cy="91.1" r="3" fill="#e6550d"/>
<circle cx="650.9" cy="88.7" r="3" fill="#e6550d"/>
<circle cx="680.0" cy="84.6" r="3" fill="#e6550d"/>
<polyline fill="none" stroke="#e6550d" stroke-width="2" points="40.0,47.5 69.1,40.8 98.2,40.0 127.3,105.5 156.4,96.4 185.5,91.1 214.5,93.7 243.6,87.7 272.7,93.1 301.8,94.0 330.9,86.0 360.0,88.8 389.1,88.3 418.2,96.1 447.3,86.5 476.4,86.9 505.5,85.9 534.5,87.5 563.6,86.1 592.7,88.7 621.8,91.1 650.9,88.7 680.0,84.6"/>
<text x="44" y="41.5" font-size="11" fill="#e6550d">fft</text>
</svg>
